<svg xmlns="http://www.w3.org/2000/svg" width="22" height="24" viewBox="0 0 22 24" fill="none">
    <path d="M10.6082 12C13.6458 12 16.1082 9.53757 16.1082 6.5C16.1082 3.46243 13.6458 1 10.6082 1C7.57065 1 5.10822 3.46243 5.10822 6.5C5.10822 9.53757 7.57065 12 10.6082 12Z" stroke="white" stroke-width="2"/>
    <path d="M16.1082 14.2H16.4951C18.1593 14.2 19.5631 15.4393 19.7696 17.0907L20.1991 20.5271C20.3632 21.8402 19.3393 23 18.016 23H3.20032C1.87703 23 0.853181 21.8402 1.01731 20.5271L1.44686 17.0907C1.65329 15.4393 3.05712 14.2 4.72139 14.2H5.1082" stroke="white" stroke-width="2" stroke-linecap="round" stroke-linejoin="round"/>
</svg>